<html>
<head>
<meta charset="UTF-8">
<meta name="viewport" content="width=device-width, initial-scale=1.0"/>

<style>
.comment
{
    padding-left: 20px;
    margin-top: 4px;
    margin-right: 4px;
    margin-bottom: 4px;
    border: 2px #000 solid;
}
.submission
{
    border: 4px #00f solid;
    padding-left: 20px;
}
.hidden
{
    display: none;
}
</style>
</head>
<body><div class="submission" id="t3_47a3tq">
    <p class="userinfo">
        <a href="https://www.reddit.com/u/jay313">jay313</a>
        <span class="score"> | 9 points</span>
        <span class="timestamp"> | Feb 24 2016 01:47:09</span>
    </p>
    <strong>[Television]Stargate SG1 S02</strong>
    <p><a href="https://mega.nz/#!m0IxHKZI!lPsOHAXIm0ADo0b-a2NHvhK1uMzUZFIDhUcBeEMQdJA">https://mega.nz/#!m0IxHKZI!lPsOHAXIm0ADo0b-a2NHvhK1uMzUZFIDhUcBeEMQdJA</a></p>
    <p class="toolbar">
        <a href="https://www.reddit.com/r/megalinks/comments/47a3tq">permalink</a>
    </p>
</div>
<div class="comment" id="t1_d0bej1z">
    <p class="userinfo">
        <a
        class="toggle_hide_button"
        href="javascript:void(0)"
        onclick="toggle_collapse(this.parentElement.parentElement)">[-]
        </a>
        <a href="https://www.reddit.com/u/jay313">jay313</a>
        <span class="score"> | 1 points</span>
        <span class="timestamp"> | Feb 24 2016 01:50:01</span>
    </p>
    <div class="collapsible">
        <p><a href="https://mega.nz/#!j5hhAZKS!T-pF0bES73dJ37l8LS2v7kC8uaI5tSBuDc39iteV1t0">Part 2</a></p>
<p><a href="https://mega.nz/#!e1BSVBwa!TvYcfftKigV5d-6kv19hFnBKO4qIUBlA-6tVq7a4YlA">Part 3</a></p>
<p><a href="https://mega.nz/#!i9ZThTaS!Wy80A1-enC7f8gSBwzPOp8LRk2Tj6hz1QJadJQTgSb0">Part4</a></p>
<p><a href="https://mega.nz/#!mgwDXIQT!G12_nNLCdPzYcuz9jBtF0gafwq9MBu1J6jZ0WSvwUvQ">Part5</a></p>
        <p class="toolbar">
            <a href="https://www.reddit.com/r/megalinks/comments/47a3tq/_/d0bej1z">permalink</a>
        </p>
        
    </div>
</div>

<div class="comment" id="t1_d0btlz5">
    <p class="userinfo">
        <a
        class="toggle_hide_button"
        href="javascript:void(0)"
        onclick="toggle_collapse(this.parentElement.parentElement)">[-]
        </a>
        <a href="https://www.reddit.com/u/DODOKING38">DODOKING38</a>
        <span class="score"> | 1 points</span>
        <span class="timestamp"> | Feb 24 2016 11:21:20</span>
    </p>
    <div class="collapsible">
        <p>What quality?</p>
        <p class="toolbar">
            <a href="https://www.reddit.com/r/megalinks/comments/47a3tq/_/d0btlz5">permalink</a>
        </p>
        <div class="comment" id="t1_d0x555u">
    <p class="userinfo">
        <a
        class="toggle_hide_button"
        href="javascript:void(0)"
        onclick="toggle_collapse(this.parentElement.parentElement)">[-]
        </a>
        <a href="https://www.reddit.com/u/prorokrak">prorokrak</a>
        <span class="score"> | 2 points</span>
        <span class="timestamp"> | Mar 12 2016 13:58:40</span>
    </p>
    <div class="collapsible">
        <p>Format                                   : AVI
Format/Info                              : Audio Video Interleave
File size                                : 352 MiB
Duration                                 : 44 min
Overall bit rate                         : 1 113 kb/s
Director                                 : heroofmm
Writing application                      : Nandub v0.22
Writing library                          : Nandub build 1377/release</p>
<p>Video
ID                                       : 0
Format                                   : MPEG-4 Visual
Codec ID                                 : DIV3
Codec ID/Hint                            : DivX 3 Low
Duration                                 : 44 min
Bit rate                                 : 915 kb/s
Width                                    : 640 pixelov
Height                                   : 360 pixelov
Display aspect ratio                     : 16:9
Frame rate                               : 23,976 snímok/sek.
Color space                              : YUV
Chroma subsampling                       : 4:2:0
Bit depth                                : 8 bitov
Bits/(Pixel*Frame)                       : 0.166
Stream size                              : 289 MiB (82%)</p>
<p>Audio
ID                                       : 1
Format                                   : AC-3
Format/Info                              : Audio Coding 3
Format profile                           : Dolby Digital
Mode extension                           : CM (complete main)
Format settings, Endianness              : Big
Codec ID                                 : 2000
Duration                                 : 44 min
Bit rate mode                            : Konštantný dátový tok
Bit rate                                 : 192 kb/s
Channel(s)                               : 2 kanály
Channel positions                        : Front: L R
Sampling rate                            : 48,0 kHz
Frame rate                               : 31,250 snímok/sek. (1536 spf)
Stream size                              : 60,7 MiB (17%)
Interleave, duration                     : 160  ms (3.84 video frames)
Interleave, preload duration             : 160  ms</p>
        <p class="toolbar">
            <a href="https://www.reddit.com/r/megalinks/comments/47a3tq/_/d0x555u">permalink</a>
        </p>
        
    </div>
</div>
    </div>
</div>

<div class="comment" id="t1_d0xjqj9">
    <p class="userinfo">
        <a
        class="toggle_hide_button"
        href="javascript:void(0)"
        onclick="toggle_collapse(this.parentElement.parentElement)">[-]
        </a>
        <a href="https://www.reddit.com/u/prorokrak">prorokrak</a>
        <span class="score"> | 1 points</span>
        <span class="timestamp"> | Mar 12 2016 21:51:19</span>
    </p>
    <div class="collapsible">
        <p>Thanks for the series.</p>
        <p class="toolbar">
            <a href="https://www.reddit.com/r/megalinks/comments/47a3tq/_/d0xjqj9">permalink</a>
        </p>
        
    </div>
</div>
</body>

<script>
function toggle_collapse(comment_div)
{
    var button = comment_div.getElementsByClassName("toggle_hide_button")[0];
    var collapsible = comment_div.getElementsByClassName("collapsible")[0];
    if (collapsible.classList.contains("hidden"))
    {
        collapsible.classList.remove("hidden");
        button.innerText = "[-]";
    }
    else
    {
        collapsible.classList.add("hidden");
        button.innerText = "[+]";
    }
}
</script>
</html>
